<svg width="38" height="43" viewBox="0 0 38 43" fill="none" xmlns="http://www.w3.org/2000/svg">
<path d="M36.7892 19.6187H34.0343V36.6844H3.96675V8.815H19.0005V5.375H3.96675C3.58302 5.38862 3.20559 5.48911 2.85675 5.67054C2.50791 5.85196 2.19473 6.11064 1.93571 6.4313C1.67669 6.75196 1.47707 7.12811 1.34865 7.53752C1.22023 7.94693 1.1656 8.3813 1.188 8.815V36.6844C1.17532 37.1115 1.23715 37.5372 1.36997 37.9373C1.50279 38.3373 1.70398 38.7038 1.96205 39.0158C2.22012 39.3278 2.53001 39.5792 2.87399 39.7555C3.21797 39.9319 3.5893 40.0299 3.96675 40.0437H34.0343C34.4117 40.0299 34.783 39.9319 35.127 39.7555C35.471 39.5792 35.7809 39.3278 36.0389 39.0158C36.297 38.7038 36.4982 38.3373 36.631 37.9373C36.7639 37.5372 36.8257 37.1115 36.813 36.6844L36.7892 19.6187Z" fill="#00BFFF"/>
<path d="M25.0798 7.71318L14.7723 19.4038L13.7273 20.5863L13.5373 20.8013L9.9273 29.2938C9.6851 29.839 9.60092 30.4568 9.68674 31.0592C9.77255 31.6617 10.024 32.2182 10.4053 32.6498C10.7867 33.0813 11.2785 33.3658 11.8109 33.4629C12.3433 33.56 12.8892 33.4648 13.3711 33.1907L20.8286 29.0788L22.0873 27.6544L23.1086 26.4988L33.4161 14.7813L34.4848 13.5988L35.0786 12.9269C36.0474 11.8285 36.5915 10.3401 36.5915 8.78818C36.5915 7.23631 36.0474 5.74783 35.0786 4.64943C34.1125 3.56414 32.8061 2.95547 31.4448 2.9563C30.0763 2.95421 28.7621 3.56255 27.7873 4.64943L26.1248 6.5038L25.0561 7.6863L25.0798 7.71318ZM13.0861 29.5626L15.8886 23.0319L18.8573 26.4182L13.0861 29.5626ZM17.8361 20.5326L27.0986 10.0244L30.1861 13.5451L21.0186 24.1876L17.8361 20.5326ZM31.3261 6.26193C31.6131 6.26083 31.8974 6.32443 32.1624 6.44901C32.4275 6.5736 32.668 6.75667 32.8698 6.98755C33.2802 7.4557 33.5106 8.08842 33.5106 8.74787C33.5106 9.40731 33.2802 10.04 32.8698 10.5082L32.2761 11.1532L29.1886 7.65943L29.7823 6.98755C29.9966 6.74871 30.254 6.56504 30.5368 6.44908C30.8197 6.33313 31.1213 6.28762 31.4211 6.31568L31.3261 6.26193Z" fill="#00BFFF"/>
</svg>
