<svg width="521" height="375" viewBox="0 0 521 375" fill="none" xmlns="http://www.w3.org/2000/svg">
<rect x="0.5" y="0.5" width="520" height="374" rx="5.5" fill="#F2F3F6"/>
<rect x="0.5" y="0.5" width="520" height="374" rx="5.5" stroke="#F2F3F6"/>
<path d="M266.158 170.759L273.246 178.486H288.934V224.845H226.959V178.486H242.646L249.734 170.759H266.158ZM269.566 163.032H246.326L239.237 170.759H226.959C222.698 170.759 219.212 174.236 219.212 178.486V224.845C219.212 229.095 222.698 232.572 226.959 232.572H288.934C293.195 232.572 296.681 229.095 296.681 224.845V178.486C296.681 174.236 293.195 170.759 288.934 170.759H276.655L269.566 163.032ZM257.946 190.075C264.337 190.075 269.566 195.291 269.566 201.665C269.566 208.04 264.337 213.255 257.946 213.255C251.555 213.255 246.326 208.04 246.326 201.665C246.326 195.291 251.555 190.075 257.946 190.075ZM257.946 182.349C247.255 182.349 238.579 191.003 238.579 201.665C238.579 212.328 247.255 220.982 257.946 220.982C268.637 220.982 277.313 212.328 277.313 201.665C277.313 191.003 268.637 182.349 257.946 182.349Z" fill="black"/>
</svg>
