<svg width="23" height="39" viewBox="0 0 23 39" fill="none" xmlns="http://www.w3.org/2000/svg">
<path id="Vector" d="M11.5 18.4932C10.4107 18.4932 9.36605 17.9804 8.59581 17.0677C7.82557 16.1551 7.39286 14.9172 7.39286 13.6265C7.39286 12.3357 7.82557 11.0979 8.59581 10.1852C9.36605 9.27253 10.4107 8.75979 11.5 8.75979C12.5893 8.75979 13.634 9.27253 14.4042 10.1852C15.1744 11.0979 15.6071 12.3357 15.6071 13.6265C15.6071 14.2656 15.5009 14.8984 15.2945 15.4889C15.0881 16.0793 14.7856 16.6158 14.4042 17.0677C14.0228 17.5197 13.57 17.8781 13.0717 18.1227C12.5734 18.3673 12.0394 18.4932 11.5 18.4932ZM11.5 -0.000244141C8.45001 -0.000244141 5.52494 1.43542 3.36827 3.99093C1.2116 6.54643 0 10.0124 0 13.6265C0 23.8465 11.5 38.9332 11.5 38.9332C11.5 38.9332 23 23.8465 23 13.6265C23 10.0124 21.7884 6.54643 19.6317 3.99093C17.4751 1.43542 14.55 -0.000244141 11.5 -0.000244141Z" fill="#B4B4B4"/>
</svg>
