<svg width="28" height="30" viewBox="0 0 28 30" fill="none" xmlns="http://www.w3.org/2000/svg">
<path d="M26.6236 13.6875H24.6298V25.5937H2.87044V6.15H13.7501V3.75H2.87044C2.59274 3.7595 2.3196 3.82961 2.06715 3.95619C1.8147 4.08276 1.58806 4.26324 1.4006 4.48696C1.21315 4.71067 1.06869 4.9731 0.975758 5.25873C0.882821 5.54437 0.84329 5.84742 0.8595 6.15V25.5937C0.850321 25.8917 0.895069 26.1888 0.991187 26.4679C1.08731 26.747 1.23291 27.0026 1.41967 27.2203C1.60643 27.438 1.83069 27.6134 2.07962 27.7364C2.32856 27.8595 2.59728 27.9278 2.87044 27.9375H24.6298C24.903 27.9278 25.1717 27.8595 25.4206 27.7364C25.6696 27.6134 25.8938 27.438 26.0806 27.2203C26.2673 27.0026 26.4129 26.747 26.5091 26.4679C26.6052 26.1888 26.6499 25.8917 26.6407 25.5937L26.6236 13.6875Z" fill="#00BFFF"/>
<path d="M18.1497 5.38125L10.6903 13.5375L9.93408 14.3625L9.79658 14.5125L7.18408 20.4375C7.0088 20.8179 6.94788 21.2489 7.00998 21.6692C7.07209 22.0895 7.25405 22.4778 7.53001 22.7789C7.80598 23.0799 8.1619 23.2784 8.5472 23.3462C8.9325 23.4139 9.32757 23.3475 9.67626 23.1563L15.0731 20.2875L15.9841 19.2938L16.7231 18.4875L24.1825 10.3125L24.956 9.4875L25.3856 9.01875C26.0867 8.25243 26.4805 7.21396 26.4805 6.13125C26.4805 5.04855 26.0867 4.01008 25.3856 3.24375C24.6865 2.48658 23.7411 2.06192 22.7559 2.0625C21.7656 2.06105 20.8146 2.48546 20.1091 3.24375L18.906 4.5375L18.1325 5.3625L18.1497 5.38125ZM9.47001 20.625L11.4981 16.0688L13.6466 18.4313L9.47001 20.625ZM12.9075 14.325L19.6106 6.99375L21.845 9.45L15.2106 16.875L12.9075 14.325ZM22.67 4.36875C22.8777 4.36799 23.0835 4.41236 23.2753 4.49928C23.4671 4.5862 23.6411 4.71392 23.7872 4.875C24.0842 5.20161 24.2509 5.64305 24.2509 6.10313C24.2509 6.56321 24.0842 7.00464 23.7872 7.33125L23.3575 7.78125L21.1231 5.34375L21.5528 4.875C21.7079 4.70837 21.8942 4.58022 22.0989 4.49932C22.3035 4.41843 22.5218 4.38668 22.7388 4.40625L22.67 4.36875Z" fill="#00BFFF"/>
</svg>
