<svg width="37" height="41" viewBox="0 0 37 41" fill="none" xmlns="http://www.w3.org/2000/svg">
<path fill-rule="evenodd" clip-rule="evenodd" d="M25.9411 16.5452C25.9411 23.243 20.9423 28.0904 15.4706 28.0904C9.9988 28.0904 5 23.243 5 16.5452C5 9.84737 9.9988 5 15.4706 5C20.9423 5 25.9411 9.84737 25.9411 16.5452ZM23.9961 30.3535C21.5517 32.0832 18.6211 33.0904 15.4706 33.0904C6.92641 33.0904 0 25.6828 0 16.5452C0 7.40753 6.92641 0 15.4706 0C24.0147 0 30.9411 7.40753 30.9411 16.5452C30.9411 20.4456 29.6791 24.0307 27.568 26.8591L35.9113 36.4194C36.8192 37.4596 36.763 39.0937 35.7858 40.0691C34.8086 41.0445 33.2804 40.9919 32.3726 39.9516L23.9961 30.3535Z" fill="#707365"/>
</svg>
